<svg xmlns="http://www.w3.org/2000/svg" viewBox="0 0 258.31 253.37"><defs><style>.cls-1{fill:#5e4837;}</style></defs><title>Acc</title><g id="Layer_2" data-name="Layer 2"><g id="Layer_5" data-name="Layer 5"><path class="cls-1" d="M160.07,215.3l-61-61a16.68,16.68,0,0,1-5-12.73,12.32,12.32,0,0,1,3.53-8.18c2.93-2.93,6.64-3.35,9.92-2.87a18.48,18.48,0,0,1,10.7,5.71l18.94,20a5.38,5.38,0,0,0,3.59,1.73,2.15,2.15,0,0,0,1.43-.32c1.16-.89,1-8.29.54-12.92-.4-4-7.37-60.27-9.33-76.07a17.94,17.94,0,0,1,2.83-12.3,11.08,11.08,0,0,1,7.54-5.1c8.79-1.27,13.77,6.71,14.69,8.21s5.28,38.33,6.2,46a2.44,2.44,0,0,0,2.33,2.2h0c1.16,0,1.28-.69,1.51-1.62.19-.76.07-37.31,0-50.38a18,18,0,0,1,4.64-12.38,9.94,9.94,0,0,1,7.21-3.6c7.87,0,14,6.32,14,10.33v56.16a2.48,2.48,0,0,0,2.44,2.5h.07c2.23,0,2.66-.47,2.66-1.28S203,61.86,203,61.86s1.24-11,13.34-11,12.58,13.65,12.58,14S226,116.54,226,116.54s.07,2.63,1.38,2.63c1.15,0,2.06-.12,2.27-1.91.09-.73.17-1.46.31-2.18l5.34-26.36a10.74,10.74,0,0,1,2.58-5.21c1.78-1.93,4.81-3.85,9.85-3.85,10.06,0,11.45,12.84,10.23,18s-13.22,63.93-13.22,63.93v45.79a11.83,11.83,0,0,1-1.45,5.8,5.87,5.87,0,0,1-.85,1.2.69.69,0,0,0,.15,1.07c1.88,1.08,5.69,3.53,5.69,5.68v26.34s.31,5.9-18.66,5.9H160.88s-8,.58-8-15.27V224.88a10.92,10.92,0,0,1,2.53-7.15A6.19,6.19,0,0,1,160.07,215.3Z"/><path class="cls-1" d="M88.71,155.8l57.06,57a57.19,57.19,0,0,1-10.21.78H66.84s-8,.58-8-15.27V185.15A10.92,10.92,0,0,1,61.39,178,6.19,6.19,0,0,1,66,175.57l-61-61a16.65,16.65,0,0,1-5-12.72,12.32,12.32,0,0,1,3.53-8.18c2.93-2.93,6.64-3.35,9.93-2.87a18.56,18.56,0,0,1,10.69,5.7l18.94,20a5.36,5.36,0,0,0,3.59,1.73,2.21,2.21,0,0,0,1.43-.31c1.16-.89,1-8.3.53-12.93-.39-4-7.35-60.27-9.32-76.07a17.9,17.9,0,0,1,2.84-12.3,11,11,0,0,1,7.53-5.1c8.8-1.27,13.77,6.71,14.7,8.22.82,1.34,5.27,38.32,6.18,46A2.46,2.46,0,0,0,72.93,68h0c1.16,0,1.28-.69,1.5-1.62.19-.76.08-37.31,0-50.38A18,18,0,0,1,79.14,3.61,9.91,9.91,0,0,1,86.35,0c7.87,0,14,6.33,14,10.33V66.49a2.48,2.48,0,0,0,2.44,2.5h.06c2.24,0,2.67-.47,2.67-1.28S109,22.13,109,22.13s1.23-11,13.33-11,12.57,13.66,12.57,14c0,.2-.79,14.23-1.55,27.63a11,11,0,0,0-7.45,5.08A17.9,17.9,0,0,0,123,70.15c2,15.8,8.93,72.1,9.32,76.08.47,4.62.62,12-.53,12.91a2.23,2.23,0,0,1-1.44.33,5.47,5.47,0,0,1-3.58-1.73l-18.94-20a18.53,18.53,0,0,0-10.7-5.7c-3.28-.48-7-.07-9.93,2.86a12.33,12.33,0,0,0-3.52,8.18A16.71,16.71,0,0,0,88.71,155.8Z"/></g></g></svg>