<svg xmlns="http://www.w3.org/2000/svg" viewBox="0 0 192.39 281.87"><defs><style>.cls-1{fill:#5e4837;}</style></defs><title>Dress_1</title><g id="Layer_2" data-name="Layer 2"><g id="Layer_5" data-name="Layer 5"><path class="cls-1" d="M148.29,68.39l8.91,9.51,35.19-27-7.19-9.67C181.35-8.46,133.05.66,133.05.66,126.38,26,109,31.11,99.42,31.92v-.05a24.21,24.21,0,0,1-3.22.18A24.47,24.47,0,0,1,93,31.87v.05C83.45,31.11,66,26,59.34.66c0,0-48.29-9.12-52.15,40.59L0,50.92l35.19,27,8.91-9.51s8.24,32.52,6.19,43.44c0,0-22.8,47.07-18.86,88a447,447,0,0,0,14.9,77.07s1.71,5,9.93,5h79.87c8.22,0,9.94-5,9.94-5A447,447,0,0,0,161,199.84c3.94-40.94-18.86-88-18.86-88C140.05,100.91,148.29,68.39,148.29,68.39Z"/></g></g></svg>