<svg xmlns="http://www.w3.org/2000/svg" viewBox="0 0 328.67 279.09"><defs><style>.cls-1{fill:#5e4837;}</style></defs><title>Jacket_1</title><g id="Layer_2" data-name="Layer 2"><g id="Layer_5" data-name="Layer 5"><path class="cls-1" d="M322.41,200.47,234.91,113s-9.1-6.7-15.42-6.7h-23S213.64,75.64,215.85,61s3.81-43.74-27.69-55.57c0,0-9.53-5.42-23.83-5.42s-23.82,5.42-23.82,5.42C109,17.25,110.61,46.35,112.82,61s19.39,45.27,19.39,45.27h-23c-6.32,0-15.42,6.7-15.42,6.7L6.25,200.47C-3.26,210,.91,214.31.91,214.31s12.79,15,16.86,19.94,11.66,1.65,11.66,1.65l61-43.34s-4.37,55.83-6.17,70,3.31,16.55,3.31,16.55h68.07V100.62l-10.59-14c-25.88-41.69,19.26-47.71,19.26-47.71s45.15,6,19.27,47.71l-10.59,14V279.09h68.07s5.12-2.41,3.31-16.55-6.17-70-6.17-70l61,43.34s7.6,3.31,11.66-1.65,16.86-19.94,16.86-19.94S331.93,210,322.41,200.47Z"/></g></g></svg>