<svg xmlns="http://www.w3.org/2000/svg" viewBox="0 0 130.7 281"><defs><style>.cls-1{fill:#5e4837;}</style></defs><title>Pants_1</title><g id="Layer_2" data-name="Layer 2"><g id="Layer_5" data-name="Layer 5"><path class="cls-1" d="M98.94,30.18H72.48s2.13,33-6.92,33h0c-9,0-6.91-33-6.91-33H32.18C32.18,55.11.45,64.24.45,64.24S2.11,241.09,2.11,261.83,8.64,281,8.64,281H44.56c6.15,0,8.45-9,8.45-9S63.36,96.7,63.36,88.19s2.2-7.9,2.2-7.9h0s2.21-.58,2.21,7.9S78.11,272,78.11,272s2.31,9,8.45,9h35.92s6.53,1.6,6.53-19.14,1.67-197.59,1.67-197.59S98.94,55.11,98.94,30.18Z"/><path class="cls-1" d="M119.73,0H11.4C5.25,0,2.18,16.13,2.18,16.13H129S125.88,0,119.73,0Z"/><path class="cls-1" d="M0,30.18v19s17.24-4.52,17.24-19Z"/><path class="cls-1" d="M130.7,30.18v19s-17.24-4.52-17.24-19Z"/></g></g></svg>