<svg xmlns="http://www.w3.org/2000/svg" viewBox="0 0 295.27 256.92"><defs><style>.cls-1{fill:#5e4837;}</style></defs><title>T-shirt_1</title><g id="Layer_2" data-name="Layer 2"><g id="Layer_5" data-name="Layer 5"><path class="cls-1" d="M195.29,0c-13.07,37.75-36.95,40.67-45.54,40.43h0c-.34,0-.68,0-1,0l-2.14,0q-.73,0-1.44-.06C136.21,40.58,112.84,37.17,100,0,100,0,34.76,15.05,0,40.49L24.73,93.17s2.32,5.38,15.05,1.25a174.15,174.15,0,0,1,20.78-5.56V249.41s-10.59,7.41,86,7.51h2.14c96.59-.1,86-7.51,86-7.51V88.86a174.52,174.52,0,0,1,20.79,5.56c12.72,4.13,15.05-1.25,15.05-1.25l24.72-52.68C260.51,15.05,195.29,0,195.29,0Z"/><path class="cls-1" d="M120.09,0s7.39,19.89,25.8,19.89S173.17,5.11,175.18,0a118.55,118.55,0,0,1-27.54,3.49A118.58,118.58,0,0,1,120.09,0Z"/></g></g></svg>